<svg xmlns="http://www.w3.org/2000/svg" xmlns:xlink="http://www.w3.org/1999/xlink" version="1.1" id="Livello_1" x="0px" y="0px" style="enable-background:new 0 0 300 300;" xml:space="preserve" viewBox="70.95 78.6 183.13 174.15">
<style type="text/css">
	.st0{fill:#C7C6C6;}
	.st1{fill:#E7468B;}
	.st2{opacity:0.3;fill:#433F73;}
	.st3{fill:#433F73;}
	.st4{fill:#25183D;}
	.st5{fill:#6B9AA4;}
	.st6{fill:none;stroke:#433F73;stroke-miterlimit:10;}
	.st7{fill:#FFFFFF;}
	.st8{fill:#F6F6F6;}
	.st9{fill-rule:evenodd;clip-rule:evenodd;fill:#F6F6F6;}
</style>
<path class="st1" d="M228.99,121.24L228.99,121.24c0.02-0.54,0.04-1.09,0.04-1.63c0-21.97-18.53-41.01-41.39-41.01  c-16.71,0-31.1,10.76-37.64,24.47H150c-6.53-13.71-20.92-24.47-37.64-24.47c-22.86,0-41.39,19.04-41.39,41.01  c0,0.55,0.02,1.09,0.04,1.63h-0.01c0,0-2.34,26.1,26.71,54.59c13.21,13.23,27.97,25.81,52.28,45.56  c24.31-19.76,39.08-32.33,52.28-45.56C231.33,147.34,228.99,121.24,228.99,121.24z"/>
<polygon class="st0" points="254.08,239.09 222.01,207.01 246,200.28 162.83,161.49 201.62,244.66 208.35,220.67 240.42,252.75 "/>
</svg>