<svg xmlns="http://www.w3.org/2000/svg" xmlns:xlink="http://www.w3.org/1999/xlink" version="1.1" id="Livello_1" x="0px" y="0px" style="enable-background:new 0 0 1920 1920;" xml:space="preserve" viewBox="260.46 174.99 1293.77 1397.29">
<style type="text/css">
	.st0{fill:#C8C7C7;}
	.st1{fill:#25193D;}
	.st2{fill:#B83474;}
	.st3{fill:#E7468B;}
	.st4{fill:#FFFFFF;}
	.st5{fill:#020203;}
</style>
<g>
	<g>
		<g>
			
				<ellipse transform="matrix(0.7071 -0.7071 0.7071 0.7071 -315.3916 882.3152)" class="st2" cx="907.35" cy="821.87" rx="457.42" ry="457.42"/>
			<path class="st1" d="M907.35,1296.02c-261.45,0-474.15-212.71-474.15-474.15s212.71-474.16,474.15-474.16     s474.15,212.71,474.15,474.16S1168.8,1296.02,907.35,1296.02z M907.35,381.18c-243,0-440.68,197.69-440.68,440.69     s197.69,440.68,440.68,440.68s440.68-197.69,440.68-440.68S1150.35,381.18,907.35,381.18z"/>
		</g>
		<g>
			<path class="st4" d="M1198.43,821.87c0,160.76-130.32,291.08-291.08,291.08S616.27,982.62,616.27,821.87     S746.6,530.78,907.35,530.78S1198.43,661.11,1198.43,821.87z"/>
			<path class="st1" d="M907.35,1129.68c-169.73,0-307.82-138.09-307.82-307.81c0-169.73,138.09-307.82,307.82-307.82     s307.82,138.09,307.82,307.82C1215.17,991.6,1077.09,1129.68,907.35,1129.68z M907.35,547.52C756.08,547.52,633,670.6,633,821.87     s123.08,274.34,274.35,274.34s274.35-123.07,274.35-274.34S1058.63,547.52,907.35,547.52z"/>
		</g>
		<g>
			<path class="st2" d="M1039.03,821.87c0,72.72-58.95,131.68-131.68,131.68s-131.68-58.96-131.68-131.68     s58.96-131.68,131.68-131.68S1039.03,749.14,1039.03,821.87z"/>
			<path class="st1" d="M907.35,970.29c-81.83,0-148.41-66.58-148.41-148.41s66.58-148.41,148.41-148.41s148.41,66.58,148.41,148.41     S989.19,970.29,907.35,970.29z M907.35,706.93c-63.38,0-114.94,51.56-114.94,114.94s51.56,114.94,114.94,114.94     s114.94-51.56,114.94-114.94S970.74,706.93,907.35,706.93z"/>
		</g>
	</g>
	<g>
		<g>
			<path class="st3" d="M1354.28,802.02l-6.86-22.65c-23.66-62.4-84.93-108.4-158.65-114.7c-23.48-42.65-55.96-89.1-86.06-89.1v98.5     h-12c-41.31,0-74.82,33.5-74.82,74.82L837.6,893.74c-11.58,9.41-18.07,23.71-17.51,38.63c0.55,14.91,8.07,28.7,20.32,37.23     l40.35,28.12c37.33,26.01,87.49,23.77,122.34-5.49l7.22-6.05c16.91-14.2,40.95-16.08,59.89-4.73     c12.55,7.53,26.14,13.7,40.53,18.29c6.59,2.11,11.67,7.4,13.47,14.08c1.81,6.68,0.11,13.81-4.52,18.96L962,1208.19l-1.63,192.84     h382.81l-3.63-185.82l21.89-85.38C1389.09,1021.96,1386.62,908.57,1354.28,802.02z"/>
			<path class="st1" d="M1343.19,1417.77H960.38c-4.46,0-8.74-1.78-11.88-4.95c-3.15-3.17-4.89-7.46-4.85-11.92l1.63-192.84     c0.03-4.09,1.56-8.02,4.29-11.05l157.68-175.43c0.83-0.92,1.14-2.2,0.81-3.4c-0.32-1.19-1.23-2.13-2.42-2.51     c-15.41-4.91-30.23-11.6-44.03-19.88c-12.83-7.68-29.11-6.41-40.52,3.19l-7.22,6.05c-40.54,34.05-99.22,36.7-142.67,6.41     l-40.35-28.12c-16.47-11.46-26.73-30.29-27.47-50.35c-0.74-20.04,8.11-39.57,23.68-52.22l172.49-140.13     c4.05-45.06,40.91-80.83,86.44-83.16v-81.89c0-9.24,7.49-16.73,16.73-16.73c30.3,0,61.89,29.5,96.44,90.11     c74.82,9.55,138.58,57.66,163.92,124.49c0.13,0.35,0.25,0.71,0.37,1.08l6.86,22.65c33.23,109.48,35.78,225.95,7.37,336.81     l-21.33,83.18l3.59,183.54c0.08,4.49-1.64,8.83-4.79,12.04S1347.68,1417.77,1343.19,1417.77z M977.25,1384.3h348.88l-3.3-168.76     c-0.02-1.51,0.15-3.02,0.52-4.49l21.89-85.38c26.89-104.92,24.48-215.16-6.98-318.78v-0.01l-6.69-22.1     c-21.96-57.24-78.51-97.82-144.23-103.43c-5.57-0.48-10.54-3.71-13.24-8.6c-24.2-43.94-42.45-64.03-54.67-73.11v74.44     c0,9.24-7.49,16.73-16.73,16.73h-12c-32.02,0-58.08,26.06-58.08,58.08c0,5.04-2.27,9.81-6.19,12.99l-178.3,144.84     c-7.45,6.05-11.69,15.41-11.33,25.01c0.35,9.62,5.27,18.63,13.15,24.12l40.36,28.13c31.08,21.65,73.03,19.76,102.02-4.59     l7.22-6.05c22.33-18.75,54.19-21.29,79.24-6.25c11.59,6.95,24.03,12.56,37.01,16.69c12.08,3.86,21.25,13.45,24.55,25.65     c3.3,12.21,0.23,25.11-8.23,34.52l-153.45,170.71L977.25,1384.3z"/>
		</g>
		<g>
			<g>
				<rect x="906.21" y="1350.4" class="st3" width="496.05" height="97.54"/>
				<path class="st1" d="M1402.26,1464.67H906.21c-9.24,0-16.73-7.49-16.73-16.73v-97.54c0-9.24,7.49-16.73,16.73-16.73h496.05      c9.24,0,16.73,7.49,16.73,16.73v97.54C1418.99,1457.18,1411.5,1464.67,1402.26,1464.67z M922.94,1431.2h462.58v-64.07H922.94      V1431.2z"/>
			</g>
			<g>
				<rect x="837.24" y="1410.41" class="st2" width="633.99" height="146.31"/>
				<path class="st1" d="M1471.23,1572.28h-634c-8.6,0-15.57-6.97-15.57-15.57v-146.31c0-8.6,6.97-15.57,15.57-15.57h634      c8.6,0,15.57,6.97,15.57,15.57v146.31C1486.8,1565.31,1479.83,1572.28,1471.23,1572.28z M852.8,1541.15h602.87v-115.17H852.8      V1541.15z"/>
			</g>
		</g>
	</g>
</g>
</svg>