<svg xmlns="http://www.w3.org/2000/svg" xmlns:xlink="http://www.w3.org/1999/xlink" version="1.1" id="Livello_1" x="0px" y="0px" style="enable-background:new 0 0 300 300;" xml:space="preserve" viewBox="27.06 20.98 245.87 258.05">
<style type="text/css">
	.st0{fill:#C7C6C6;}
	.st1{fill:#E7468B;}
	.st2{opacity:0.3;fill:#433F73;}
	.st3{fill:#433F73;}
	.st4{fill:#25183D;}
	.st5{fill:#6B9AA4;}
	.st6{fill:none;stroke:#433F73;stroke-miterlimit:10;}
	.st7{fill:#FFFFFF;}
	.st8{fill:#F6F6F6;}
	.st9{fill-rule:evenodd;clip-rule:evenodd;fill:#F6F6F6;}
</style>
<rect x="135.57" y="215.41" class="st0" width="28.87" height="50.77"/>
<path class="st0" d="M158.34,114.82h-5.46v58.06c4.84,1.28,8.43,5.65,8.43,10.9c0,6.25-5.07,11.31-11.31,11.31  c-6.25,0-11.31-5.07-11.31-11.31c0-5.25,3.59-9.62,8.43-10.9v-58.06h-5.46l-26.37,75.4l20.27,30.7L150,221.3l14.43-0.39l20.27-30.7  L158.34,114.82z"/>
<path class="st1" d="M125.63,279.02V241c0-6.49,5.26-11.75,11.75-11.75h25.23c6.49,0,11.75,5.26,11.75,11.75v38.03H125.63z"/>
<path class="st1" d="M244.07,85.95v10.33h-60.63c28.83-12.85,48.98-41.76,48.98-75.3h-8.21c0,35.98-25.74,66.04-59.77,72.78v-7.81  h-28.87v7.81c-34.03-6.74-59.77-36.81-59.77-72.78h-8.21c0,33.54,20.15,62.45,48.98,75.3H55.93V85.95H27.06v28.87h28.87V104.5h79.63  v10.33h28.87V104.5h79.63v10.33h28.87V85.95H244.07z"/>
</svg>