<svg xmlns="http://www.w3.org/2000/svg" xmlns:xlink="http://www.w3.org/1999/xlink" version="1.1" id="Livello_1" x="0px" y="0px" style="enable-background:new 0 0 300 300;" xml:space="preserve" viewBox="42.27 23.05 215.47 253.91">
<style type="text/css">
	.st0{fill:#C7C6C6;}
	.st1{fill:#E7468B;}
	.st2{opacity:0.3;fill:#433F73;}
	.st3{fill:#433F73;}
	.st4{fill:#25183D;}
	.st5{fill:#6B9AA4;}
	.st6{fill:none;stroke:#433F73;stroke-miterlimit:10;}
	.st7{fill:#FFFFFF;}
	.st8{fill:#F6F6F6;}
	.st9{fill-rule:evenodd;clip-rule:evenodd;fill:#F6F6F6;}
</style>
<g>
	<path class="st2" d="M214.14,265.38c0,6.39-24.06,11.58-53.73,11.58c-29.68,0-53.74-5.18-53.74-11.58   c0-6.39,24.06-11.58,53.74-11.58C190.09,253.8,214.14,258.99,214.14,265.38z"/>
	<path class="st1" d="M42.32,102.85l2.72,26.38l205.15-21.14l-2.72-26.38c-0.57-5.58-5.56-9.63-11.14-9.05L51.38,91.71   C45.8,92.29,41.75,97.27,42.32,102.85z"/>
	<path class="st1" d="M44.3,122l8.23,79.84c0.59,5.71,5.69,9.86,11.4,9.27l184.48-19.01c5.71-0.59,9.86-5.69,9.27-11.4l-8.23-79.84   L44.3,122z"/>
	
		<rect x="47.47" y="111.24" transform="matrix(0.9947 -0.1025 0.1025 0.9947 -14.3311 16.2167)" class="st0" width="206.24" height="72.58"/>
	<polygon class="st2" points="215.87,138.58 221.14,194.9 116.02,205.73 109.55,149.54  "/>
	<path class="st0" d="M56.8,91.26l12.51-1.29c1.08-0.11,1.86-1.08,1.75-2.15l-0.16-1.51c-0.11-1.08-1.08-1.86-2.15-1.75l-12.51,1.29   c-1.08,0.11-1.86,1.08-1.75,2.15l0.16,1.51C54.75,90.58,55.72,91.37,56.8,91.26z"/>
	<polygon class="st1" points="194.85,80.32 186.02,53.68 121.54,60.32 118.32,88.21  "/>
	<polygon class="st2" points="184.51,77.8 178.83,66.32 131.15,71.24 127.93,83.63  "/>
	
		<rect x="117.41" y="87.03" transform="matrix(0.9947 -0.1025 0.1025 0.9947 -9.2578 16.721)" class="st2" width="81.25" height="22.78"/>
	<path class="st0" d="M226.11,65.61l-19.98,2.06c-1.73,0.18-2.99,1.72-2.81,3.45l0.5,4.83l26.24-2.7l-0.5-4.83   C229.39,66.69,227.84,65.43,226.11,65.61z"/>
	<path class="st0" d="M107.63,85.49l-28.9,2.98c-0.39,0.04-0.73-0.24-0.77-0.63l-0.59-5.76c-0.04-0.39,0.24-0.73,0.63-0.77   l28.9-2.98c0.39-0.04,0.73,0.24,0.77,0.63l0.59,5.76C108.3,85.11,108.02,85.45,107.63,85.49z"/>
	<path class="st2" d="M101.55,102.09c-0.43-4.15-4.14-7.17-8.29-6.74c-4.15,0.43-7.17,4.14-6.74,8.29c0.43,4.15,4.14,7.17,8.29,6.74   C98.96,109.95,101.98,106.24,101.55,102.09z"/>
	<path class="st3" d="M97.82,102.47c-0.22-2.09-2.09-3.61-4.18-3.4c-2.09,0.22-3.61,2.09-3.4,4.18s2.09,3.61,4.18,3.4   C96.52,106.44,98.04,104.57,97.82,102.47z"/>
	<path class="st4" d="M207.34,100.82l-19.84,13l9.03,13.78l19.84-13c3.81-2.49,4.87-7.6,2.38-11.4l0,0   C216.25,99.39,211.15,98.33,207.34,100.82z"/>
	<path class="st1" d="M215.39,105.59c-1.52-2.32-4.63-2.97-6.95-1.45c-2.32,1.52-2.97,4.63-1.45,6.95c1.52,2.32,4.63,2.97,6.95,1.45   C216.26,111.03,216.91,107.91,215.39,105.59z"/>
	<path class="st5" d="M213.06,107.12c-0.68-1.03-2.06-1.32-3.09-0.64c-1.03,0.68-1.32,2.06-0.64,3.09c0.68,1.03,2.06,1.32,3.09,0.64   C213.44,109.54,213.73,108.15,213.06,107.12z"/>
	
		<ellipse transform="matrix(0.9861 -0.1664 0.1664 0.9861 -21.6982 29.0749)" class="st1" cx="162.71" cy="144.06" rx="53.44" ry="53.44"/>
	
		<ellipse transform="matrix(3.219770e-03 -1 1 3.219770e-03 18.1249 306.3107)" class="st6" cx="162.71" cy="144.06" rx="45.14" ry="45.14"/>
	
		<ellipse transform="matrix(0.8684 -0.4959 0.4959 0.8684 -50.0266 99.6583)" class="st0" cx="162.71" cy="144.06" rx="35.22" ry="35.22"/>
	<path class="st1" d="M161.13,128.74c-8.46,0.87-14.61,8.44-13.74,16.9c0.87,8.46,8.44,14.61,16.9,13.74   c8.46-0.87,14.61-8.44,13.74-16.9C177.16,134.02,169.59,127.87,161.13,128.74z"/>
	<path class="st5" d="M161.79,135.14c-4.93,0.51-8.51,4.91-8,9.84c0.51,4.93,4.91,8.51,9.84,8c4.93-0.51,8.51-4.91,8-9.84   C171.12,138.22,166.72,134.63,161.79,135.14z"/>
	<path class="st7" d="M165.9,125.2c-4.43,0.46-7.65,4.42-7.19,8.85c0.46,4.43,4.42,7.65,8.85,7.19c4.43-0.46,7.65-4.42,7.19-8.85   C174.29,127.96,170.33,124.74,165.9,125.2z"/>
	<path class="st0" d="M235.31,82.58l-26.78,2.76c-1.02,0.1-1.76,1.01-1.65,2.03l0.7,6.79c0.1,1.02,1.01,1.76,2.03,1.65l26.78-2.76   c1.02-0.1,1.76-1.01,1.65-2.03l-0.7-6.79C237.23,83.21,236.32,82.47,235.31,82.58z"/>
	<g>
		<path class="st0" d="M116.89,49.03c-0.09,0.09-0.19,0.17-0.3,0.24c-1,0.68-2.36,0.43-3.04-0.57l-8.58-12.54    c-0.68-1-0.43-2.36,0.57-3.05c1-0.68,2.36-0.43,3.04,0.57l8.58,12.54C117.78,47.12,117.64,48.3,116.89,49.03z"/>
	</g>
	<g>
		<g>
			<path class="st4" d="M107.19,55.67c-0.69,0.67-1.76,0.83-2.62,0.33L90.9,48.11c-1.05-0.6-1.41-1.95-0.8-2.99     c0.61-1.05,1.95-1.41,2.99-0.8l13.67,7.89c1.05,0.6,1.41,1.95,0.8,2.99C107.46,55.37,107.33,55.53,107.19,55.67z"/>
		</g>
		<g>
			<path class="st4" d="M126.58,42.4c-0.32,0.31-0.73,0.52-1.2,0.6c-1.2,0.18-2.31-0.64-2.5-1.83l-2.4-15.6     c-0.18-1.19,0.63-2.31,1.83-2.5c1.2-0.18,2.32,0.64,2.5,1.83l2.4,15.6C127.33,41.23,127.07,41.92,126.58,42.4z"/>
		</g>
	</g>
</g>
</svg>