<svg xmlns="http://www.w3.org/2000/svg" xmlns:xlink="http://www.w3.org/1999/xlink" version="1.1" id="Livello_1" x="0px" y="0px" style="enable-background:new 0 0 1920 1920;" xml:space="preserve" viewBox="360.46 181.48 1199.09 1557.02">
<style type="text/css">
	.st0{fill:#C8C7C7;}
	.st1{fill:#25193D;}
	.st2{fill:#B83474;}
	.st3{fill:#E7468B;}
	.st4{fill:#FFFFFF;}
	.st5{fill:#020203;}
</style>
<g>
	<g>
		<g>
			<path class="st0" d="M605.11,1718.3H379.25v-329.41c0-27.55,22.33-49.89,49.89-49.89h126.08c27.56,0,49.89,22.33,49.89,49.89     V1718.3z"/>
			<path class="st1" d="M605.1,1737.09H379.25c-10.38,0-18.79-8.41-18.79-18.79v-329.41c0-37.87,30.81-68.68,68.68-68.68h126.08     c37.86,0,68.68,30.81,68.68,68.68v329.41C623.89,1728.68,615.48,1737.09,605.1,1737.09z M398.04,1699.52h188.27v-310.62     c0-17.15-13.95-31.1-31.1-31.1H429.14c-17.15,0-31.1,13.95-31.1,31.1V1699.52z"/>
		</g>
		<g>
			<path class="st0" d="M916.52,1718.3H690.67v-473.14c0-27.55,22.33-49.89,49.89-49.89h126.08c27.56,0,49.89,22.33,49.89,49.89     V1718.3z"/>
			<path class="st1" d="M916.51,1737.09H690.66c-10.38,0-18.79-8.41-18.79-18.79v-473.14c0-37.87,30.81-68.68,68.68-68.68h126.08     c37.86,0,68.68,30.81,68.68,68.68v473.14C935.3,1728.68,926.89,1737.09,916.51,1737.09z M709.45,1699.52h188.27v-454.35     c0-17.15-13.95-31.1-31.1-31.1H740.55c-17.15,0-31.1,13.95-31.1,31.1V1699.52z"/>
		</g>
		<g>
			<path class="st2" d="M1227.93,1718.3h-225.85v-663.06c0-27.55,22.33-49.89,49.89-49.89h126.08c27.56,0,49.89,22.33,49.89,49.89     V1718.3z"/>
			<path class="st1" d="M1227.93,1738.5h-225.85c-11.15,0-20.2-9.04-20.2-20.2v-663.07c0-38.65,31.44-70.09,70.09-70.09h126.08     c38.64,0,70.09,31.44,70.09,70.09v663.07C1248.13,1729.46,1239.08,1738.5,1227.93,1738.5z M1022.27,1698.11h185.45v-642.87     c0-16.37-13.31-29.69-29.69-29.69h-126.08c-16.37,0-29.69,13.32-29.69,29.69V1698.11z"/>
		</g>
		<g>
			<path class="st3" d="M1539.34,1718.3h-225.85V880.71c0-27.55,22.33-49.89,49.89-49.89h126.08c27.56,0,49.89,22.33,49.89,49.89     V1718.3z"/>
			<path class="st1" d="M1539.34,1738.5h-225.85c-11.16,0-20.2-9.04-20.2-20.2V880.71c0-38.65,31.44-70.09,70.09-70.09h126.08     c38.64,0,70.09,31.44,70.09,70.09v837.59C1559.54,1729.46,1550.49,1738.5,1539.34,1738.5z M1333.69,1698.11h185.45v-817.4     c0-16.37-13.31-29.69-29.69-29.69h-126.08c-16.37,0-29.69,13.32-29.69,29.69V1698.11z"/>
		</g>
	</g>
	<g>
		<path class="st3" d="M1263.88,553.56L916.7,481.37l49.37,104.74L508.01,802.09c-11.96,5.64-21.21,15.81-25.67,28.26    c-4.48,12.45-3.82,26.17,1.82,38.14l42.72,90.58c11.75,24.92,41.47,35.6,66.4,23.84l458.06-215.98l47.31,100.35L1263.88,553.56z"/>
		<path class="st1" d="M572.04,1007.91c-7.98,0-16-1.39-23.73-4.16c-17.63-6.33-31.72-19.14-39.7-36.07l-42.72-90.58    c-7.99-16.94-8.9-35.98-2.56-53.59c6.31-17.61,19.12-31.7,36.06-39.69l439.8-207.36l-40.75-86.47    c-3.27-6.93-2.34-15.11,2.41-21.12c4.73-6.01,12.44-8.83,19.97-7.27l347.18,72.19c6.21,1.29,11.45,5.42,14.15,11.16    c2.71,5.74,2.56,12.42-0.39,18.03L1116.52,876.7c-3.57,6.77-10.51,10.99-18.32,10.78c-7.66-0.17-14.56-4.66-17.82-11.58    l-38.7-82.08l-439.8,207.36C592.4,1005.66,582.24,1007.91,572.04,1007.91z M952.24,509.4l32.1,68.1    c4.76,10.09,0.43,22.13-9.66,26.89L516.62,820.36c-7.06,3.33-12.63,9.46-15.27,16.81c-2.69,7.47-2.3,15.53,1.08,22.71l42.71,90.57    c3.38,7.18,9.36,12.6,16.82,15.28c7.47,2.69,15.53,2.28,22.7-1.09l458.06-215.98c4.83-2.28,10.41-2.54,15.44-0.74    c5.04,1.81,9.16,5.55,11.44,10.4l30.04,63.72l133.86-254.15L952.24,509.4z"/>
	</g>
	<g>
		<g>
			<g>
				<path class="st3" d="M1437.96,675.2c-6.7-0.92-13.24-2.32-19.63-4.23c-6.39-1.91-12.53-4.21-18.38-6.91      c-5.89-2.71-11.38-5.76-16.52-9.16c-5.14-3.4-9.76-7.12-13.91-11.15l14.68-21.61c1.27-1.84,3.02-3.36,5.18-4.58      c2.2-1.2,4.44-1.8,6.76-1.8c2.65,0,5.42,0.8,8.29,2.41c2.87,1.61,6.08,3.54,9.59,5.8c3.53,2.24,7.49,4.52,11.91,6.82      c4.44,2.3,9.6,4.08,15.48,5.36l6.55-71.71c-5.52-1.49-11.02-3.2-16.48-5.1c-5.47-1.91-10.76-4.12-15.82-6.65      c-5.06-2.53-9.76-5.5-14.07-8.9c-4.32-3.4-8.11-7.46-11.33-12.19c-3.24-4.72-5.77-10.16-7.59-16.33      c-1.85-6.16-2.77-13.27-2.77-21.34c0-8.98,1.79-17.71,5.36-26.18c3.56-8.46,8.8-16.04,15.64-22.72      c6.85-6.68,15.28-12.19,25.31-16.51c10.02-4.32,21.56-6.83,34.57-7.52l1.9-20.56c0.22-2.99,1.52-5.68,3.89-8.04      c2.36-2.35,5.33-3.53,8.9-3.53h17.61l-3.11,33.86c12.32,2.19,22.95,5.79,31.9,10.8c8.92,5.01,16.56,10.57,22.88,16.68      l-11.75,17.27c-1.62,2.65-3.35,4.58-5.19,5.8c-1.84,1.2-4.02,1.8-6.56,1.8c-1.73,0-3.78-0.48-6.14-1.47      c-2.36-0.98-5.01-2.18-7.95-3.62c-2.92-1.44-6.12-2.91-9.58-4.4c-3.46-1.5-7.2-2.78-11.23-3.81l-6.06,67.05      c8.3,2.54,16.52,5.33,24.72,8.38c8.18,3.05,15.55,7.03,22.11,11.92c6.58,4.91,11.85,11.01,15.91,18.32      c4.02,7.32,6.05,16.4,6.05,27.22c0,10.72-1.85,20.82-5.54,30.33c-3.68,9.5-9.02,17.91-15.98,25.23      c-6.96,7.31-15.55,13.27-25.75,17.89c-10.2,4.6-21.79,7.37-34.81,8.29l-2.07,23.49c-0.25,3-1.5,5.7-3.82,8.13      c-2.32,2.42-5.31,3.62-8.99,3.62h-17.46L1437.96,675.2z M1424.65,489.28c0,3.92,0.65,7.4,1.98,10.45      c1.33,3.05,3.21,5.79,5.62,8.21c2.41,2.42,5.3,4.58,8.63,6.49c3.34,1.89,7.04,3.65,11.06,5.26l5.19-58.75      c-5.86,0.81-10.87,2.1-15.02,3.88c-4.14,1.79-7.52,3.92-10.13,6.4c-2.57,2.48-4.45,5.25-5.61,8.29      C1425.24,482.56,1424.65,485.82,1424.65,489.28z M1503.8,601.94c0-3.92-0.7-7.34-2.07-10.28c-1.4-2.94-3.3-5.56-5.72-7.86      c-2.41-2.3-5.32-4.35-8.72-6.14c-3.4-1.78-7.06-3.37-10.97-4.76l-5.71,64.11c10.94-1.61,19.2-5.39,24.8-11.32      C1501,619.77,1503.8,611.85,1503.8,601.94z"/>
			</g>
		</g>
	</g>
	<g>
		<g>
			<g>
				<path class="st3" d="M1176.79,357.87c-4.13-0.56-8.16-1.43-12.09-2.6c-3.93-1.17-7.71-2.59-11.32-4.26      c-3.63-1.67-7.01-3.54-10.18-5.64c-3.17-2.09-6.02-4.38-8.57-6.87l9.04-13.31c0.78-1.13,1.86-2.07,3.2-2.82      c1.35-0.74,2.73-1.11,4.15-1.11c1.64,0,3.34,0.5,5.12,1.48c1.77,0.99,3.74,2.18,5.9,3.58c2.18,1.38,4.61,2.79,7.34,4.2      c2.74,1.42,5.91,2.51,9.54,3.3l4.04-44.18c-3.4-0.92-6.79-1.97-10.16-3.14c-3.37-1.17-6.63-2.54-9.75-4.1      c-3.13-1.56-6.02-3.39-8.67-5.48s-4.99-4.6-6.98-7.51c-1.99-2.91-3.55-6.26-4.68-10.06c-1.14-3.8-1.72-8.18-1.72-13.15      c0-5.54,1.11-10.91,3.3-16.13c2.2-5.21,5.43-9.88,9.64-14c4.22-4.11,9.41-7.51,15.6-10.17c6.17-2.66,13.27-4.21,21.28-4.63      l1.18-12.67c0.13-1.84,0.93-3.5,2.38-4.95c1.46-1.45,3.29-2.17,5.49-2.17h10.85l-1.91,20.86c7.58,1.35,14.13,3.57,19.65,6.65      c5.49,3.09,10.21,6.51,14.09,10.28l-7.24,10.64c-1,1.63-2.06,2.82-3.19,3.57c-1.14,0.74-2.49,1.12-4.04,1.12      c-1.06,0-2.33-0.31-3.79-0.91c-1.45-0.6-3.09-1.35-4.89-2.24c-1.81-0.88-3.78-1.79-5.9-2.71c-2.14-0.92-4.45-1.71-6.92-2.35      l-3.74,41.31c5.12,1.56,10.18,3.28,15.23,5.16c5.04,1.88,9.58,4.33,13.63,7.34c4.05,3.02,7.3,6.78,9.79,11.28      c2.48,4.51,3.73,10.1,3.73,16.77c0,6.6-1.14,12.83-3.41,18.69c-2.27,5.85-5.55,11.04-9.85,15.54      c-4.29,4.51-9.58,8.18-15.86,11.02c-6.27,2.84-13.42,4.54-21.43,5.11l-1.29,14.47c-0.15,1.85-0.92,3.51-2.34,5.01      c-1.44,1.49-3.27,2.24-5.54,2.24h-10.75L1176.79,357.87z M1168.58,243.34c0,2.41,0.4,4.56,1.22,6.44      c0.83,1.88,1.98,3.57,3.47,5.06c1.48,1.49,3.27,2.82,5.31,3.99c2.06,1.16,4.34,2.25,6.82,3.24l3.2-36.19      c-3.61,0.49-6.7,1.29-9.25,2.39c-2.55,1.11-4.64,2.42-6.23,3.94c-1.6,1.52-2.75,3.23-3.46,5.11      C1168.95,239.2,1168.58,241.21,1168.58,243.34z M1217.36,312.75c0-2.41-0.44-4.53-1.29-6.33c-0.86-1.81-2.02-3.42-3.51-4.84      c-1.49-1.42-3.28-2.68-5.38-3.78c-2.09-1.09-4.35-2.08-6.77-2.93l-3.51,39.5c6.75-1,11.83-3.31,15.28-6.97      C1215.62,323.72,1217.36,318.85,1217.36,312.75z"/>
			</g>
		</g>
	</g>
	<g>
		<g>
			<g>
				<path class="st3" d="M1363.35,303.32c-2.69-0.37-5.33-0.94-7.9-1.71c-2.56-0.76-5.04-1.69-7.4-2.78      c-2.38-1.09-4.58-2.32-6.65-3.68c-2.06-1.37-3.93-2.86-5.59-4.48l5.91-8.7c0.5-0.74,1.21-1.35,2.08-1.84      c0.88-0.48,1.79-0.73,2.71-0.73c1.07,0,2.19,0.32,3.34,0.97c1.15,0.65,2.45,1.42,3.86,2.33c1.42,0.9,3.01,1.82,4.79,2.75      c1.78,0.92,3.86,1.63,6.23,2.15l2.63-28.86c-2.22-0.6-4.43-1.28-6.64-2.05c-2.2-0.76-4.32-1.66-6.36-2.67      c-2.04-1.03-3.93-2.21-5.66-3.58c-1.74-1.37-3.25-3.01-4.56-4.91c-1.3-1.9-2.33-4.09-3.07-6.57c-0.74-2.48-1.11-5.34-1.11-8.59      c0-3.61,0.73-7.13,2.16-10.53c1.43-3.41,3.54-6.45,6.29-9.14c2.76-2.68,6.15-4.9,10.19-6.64c4.03-1.74,8.68-2.75,13.91-3.02      l0.77-8.27c0.09-1.2,0.61-2.29,1.57-3.23c0.95-0.94,2.14-1.42,3.58-1.42h7.08l-1.24,13.63c4.95,0.88,9.23,2.33,12.83,4.34      c3.58,2.02,6.67,4.26,9.21,6.72l-4.73,6.95c-0.65,1.07-1.35,1.84-2.09,2.33c-0.74,0.48-1.62,0.73-2.63,0.73      c-0.69,0-1.52-0.19-2.48-0.59c-0.95-0.4-2.02-0.88-3.2-1.46c-1.17-0.58-2.47-1.17-3.85-1.77c-1.4-0.6-2.91-1.11-4.53-1.53      l-2.44,26.98c3.33,1.03,6.65,2.15,9.94,3.37c3.29,1.23,6.25,2.83,8.9,4.8c2.65,1.97,4.77,4.43,6.41,7.37      c1.61,2.94,2.43,6.6,2.43,10.95c0,4.31-0.74,8.38-2.23,12.21c-1.48,3.82-3.63,7.21-6.44,10.15c-2.8,2.94-6.25,5.34-10.35,7.19      c-4.1,1.86-8.78,2.97-14.02,3.34l-0.83,9.45c-0.11,1.2-0.61,2.29-1.54,3.27c-0.93,0.97-2.14,1.46-3.62,1.46h-7.02      L1363.35,303.32z M1357.99,228.5c0,1.58,0.26,2.98,0.79,4.21c0.55,1.23,1.3,2.33,2.27,3.3s2.13,1.84,3.47,2.61      c1.35,0.76,2.83,1.47,4.46,2.12l2.08-23.64c-2.37,0.33-4.37,0.85-6.04,1.56c-1.68,0.72-3.04,1.58-4.08,2.57      c-1.04,1-1.79,2.12-2.26,3.34C1358.22,225.8,1357.99,227.11,1357.99,228.5z M1389.85,273.84c0-1.58-0.3-2.95-0.84-4.13      c-0.57-1.19-1.33-2.24-2.3-3.17c-0.98-0.92-2.15-1.75-3.52-2.47c-1.36-0.72-2.84-1.36-4.42-1.92l-2.3,25.8      c4.42-0.65,7.73-2.17,9.98-4.55C1388.72,281.01,1389.85,277.82,1389.85,273.84z"/>
			</g>
		</g>
	</g>
</g>
</svg>