<svg xmlns="http://www.w3.org/2000/svg" xmlns:xlink="http://www.w3.org/1999/xlink" version="1.1" id="Livello_1" x="0px" y="0px" style="enable-background:new 0 0 1920 1920;" xml:space="preserve" viewBox="149.14 395.64 1621.71 1128.72">
<style type="text/css">
	.st0{fill:#C8C7C7;}
	.st1{fill:#25193D;}
	.st2{fill:#B83474;}
	.st3{fill:#E7468B;}
	.st4{fill:#FFFFFF;}
	.st5{fill:#020203;}
</style>
<g>
	<g>
		<g>
			<path class="st3" d="M345.85,831.82l122.31-69.16l133.75,69.16l100.65,64.52c48.4,31.03,77.68,84.56,77.68,142.05v90.64H234.35     c-36.91,0-66.83-29.92-66.83-66.82v-23.81c0-57.5,29.27-111.03,77.67-142.06L345.85,831.82z"/>
			<path class="st1" d="M780.24,1147.42H234.35c-46.99,0-85.21-38.23-85.21-85.2v-23.81c0-64.07,32.2-122.96,86.14-157.53     l100.66-64.51c0.29-0.19,0.57-0.36,0.87-0.53l122.32-69.17c5.4-3.04,11.97-3.18,17.49-0.32l133.74,69.17     c0.5,0.26,1,0.55,1.47,0.85l100.65,64.51c53.94,34.57,86.14,93.46,86.14,157.52v90.64     C798.62,1139.19,790.39,1147.42,780.24,1147.42z M355.33,847.58l-100.23,64.24c-43.33,27.78-69.21,75.1-69.21,126.59v23.81     c0,26.71,21.74,48.44,48.45,48.44h527.51v-72.26c0-51.47-25.88-98.79-69.22-126.58l-99.93-64.06l-124.15-64.21L355.33,847.58z"/>
		</g>
		<g>
			<path class="st4" d="M388.44,836.26c0,44.35,35.95,80.31,80.31,80.31c44.36,0,80.31-35.95,80.31-80.31v-80.32H388.44V836.26z"/>
			<path class="st1" d="M468.75,934.95c-54.42,0-98.68-44.27-98.68-98.69v-80.32c0-10.15,8.23-18.38,18.38-18.38h160.61     c10.15,0,18.38,8.23,18.38,18.38v80.32C567.44,890.67,523.16,934.95,468.75,934.95z M406.83,774.32v61.94     c0,34.15,27.78,61.93,61.92,61.93c34.15,0,61.93-27.78,61.93-61.93v-61.94H406.83z"/>
		</g>
		<g>
			<path class="st4" d="M341.58,748.22c27.72,55.51,72.56,102.18,123.15,102.18c84.18,0,152.43-129.2,152.43-213.38     s-68.25-152.42-152.43-152.42c-84.17,0-152.42,68.24-152.42,152.42C312.31,670.61,323.18,711.36,341.58,748.22"/>
			<path class="st1" d="M464.72,868.79c-52.27,0-104.45-42-139.59-112.36l0,0c-19.84-39.72-31.21-83.25-31.21-119.41     c0-94.18,76.62-170.8,170.8-170.8c94.19,0,170.81,76.62,170.81,170.8C635.53,728.19,562.19,868.79,464.72,868.79z M358.02,740     c22.22,44.49,61.92,92.02,106.71,92.02c72.7,0,134.04-119.77,134.04-195c0-73.91-60.13-134.04-134.04-134.04     s-134.04,60.12-134.04,134.04C330.69,667.68,340.65,705.22,358.02,740L358.02,740z"/>
		</g>
		<g>
			<path class="st5" d="M671.01,1145.99c-10.15,0-18.38-8.23-18.38-18.38v-61.79c0-10.15,8.23-18.38,18.38-18.38     c10.15,0,18.38,8.23,18.38,18.38v61.79C689.39,1137.76,681.16,1145.99,671.01,1145.99z"/>
		</g>
		<g>
			<path class="st1" d="M276.74,1144.71c-9.44,0-17.1-7.66-17.1-17.1v-61.79c0-9.44,7.66-17.1,17.1-17.1s17.1,7.66,17.1,17.1v61.79     C293.84,1137.05,286.18,1144.71,276.74,1144.71z"/>
		</g>
	</g>
	<g>
		<g>
			<path class="st3" d="M1575.44,831.82l-122.31-69.16l-133.75,69.16l-100.64,64.52c-48.4,31.02-77.68,84.56-77.68,142.05v90.64     h545.89c36.91,0,66.83-29.92,66.83-66.82v-23.82c0-57.49-29.27-111.03-77.68-142.05L1575.44,831.82z"/>
			<path class="st1" d="M1686.93,1146.13h-545.88c-9.44,0-17.1-7.66-17.1-17.1v-90.64c0-63.63,31.98-122.11,85.54-156.45     l100.65-64.51c0.45-0.29,0.91-0.55,1.37-0.79l133.75-69.16c5.13-2.66,11.25-2.55,16.27,0.31l122.31,69.16     c0.27,0.15,0.54,0.31,0.81,0.48l100.65,64.51c53.57,34.33,85.55,92.82,85.55,156.45v23.82     C1770.86,1108.49,1733.21,1146.13,1686.93,1146.13z M1158.15,1111.94h528.78c27.42,0,49.73-22.3,49.73-49.72v-23.82     c0-51.92-26.1-99.64-69.81-127.65l-100.25-64.26l-113.84-64.37l-124.83,64.54l-99.98,64.09c-43.71,28.01-69.8,75.73-69.8,127.65     V1111.94z"/>
		</g>
		<g>
			<path class="st4" d="M1532.85,836.26c0,44.36-35.95,80.31-80.32,80.31c-44.35,0-80.31-35.96-80.31-80.31v-80.32h160.63V836.26z"/>
			<path class="st1" d="M1452.54,934.95c-54.42,0-98.69-44.27-98.69-98.7v-80.32c0-10.15,8.23-18.38,18.38-18.38h160.62     c10.15,0,18.38,8.23,18.38,18.38v80.32C1551.23,890.68,1506.95,934.95,1452.54,934.95z M1390.61,774.32v61.94     c0,34.15,27.78,61.94,61.93,61.94s61.93-27.79,61.93-61.94v-61.94H1390.61z"/>
		</g>
		<g>
			<path class="st4" d="M1579.71,748.22c-27.73,55.51-72.56,102.18-123.16,102.18c-84.17,0-152.43-129.2-152.43-213.38     s68.26-152.42,152.43-152.42s152.42,68.24,152.42,152.42C1608.97,670.61,1598.11,711.36,1579.71,748.22"/>
			<path class="st1" d="M1456.55,868.79c-97.46,0-170.81-140.6-170.81-231.77c0-94.18,76.62-170.8,170.81-170.8     c94.18,0,170.8,76.62,170.8,170.8c0,36.18-11.37,79.7-31.2,119.41l0,0C1561,826.79,1508.81,868.79,1456.55,868.79z      M1456.55,502.99c-73.91,0-134.04,60.12-134.04,134.04c0,75.23,61.35,195,134.04,195c44.78,0,84.48-47.53,106.72-92.02l0,0     c17.36-34.78,27.32-72.31,27.32-102.98C1590.59,563.11,1530.46,502.99,1456.55,502.99z"/>
		</g>
		<g>
			<path class="st5" d="M1250.27,1145.99c-10.15,0-18.38-8.23-18.38-18.38v-61.79c0-10.15,8.23-18.38,18.38-18.38     c10.15,0,18.38,8.23,18.38,18.38v61.79C1268.65,1137.76,1260.42,1145.99,1250.27,1145.99z"/>
		</g>
		<g>
			<path class="st1" d="M1644.54,1144.71c-9.44,0-17.1-7.66-17.1-17.1v-61.79c0-9.44,7.66-17.1,17.1-17.1     c9.44,0,17.1,7.66,17.1,17.1v61.79C1661.63,1137.05,1653.98,1144.71,1644.54,1144.71z"/>
		</g>
	</g>
	<g>
		<g>
			<path class="st3" d="M1179.28,1002.37L972.03,885.18L745.4,1002.37l-170.54,109.32c-82.02,52.58-131.62,143.29-131.62,240.71     v86.75c0,36.91,29.92,66.83,66.83,66.83h904.55c36.91,0,66.83-29.92,66.83-66.83v-86.74c0-97.42-49.6-188.13-131.62-240.71     L1179.28,1002.37z"/>
			<path class="st1" d="M1414.62,1524.36H510.07c-46.99,0-85.21-38.23-85.21-85.21v-86.75c0-104.18,52.37-199.95,140.09-256.19     l170.54-109.32c0.48-0.31,0.97-0.59,1.47-0.85l226.62-117.19c5.53-2.85,12.1-2.72,17.49,0.32l207.26,117.19     c0.3,0.17,0.58,0.34,0.87,0.53l170.56,109.33c87.71,56.23,140.08,152,140.08,256.18v86.75     C1499.83,1486.13,1461.6,1524.36,1414.62,1524.36z M754.6,1018.31l-169.82,108.85c-77.12,49.44-123.16,133.65-123.16,225.24     v86.75c0,26.71,21.74,48.45,48.45,48.45h904.55c26.71,0,48.45-21.74,48.45-48.45v-86.75c0-91.6-46.03-175.8-123.15-225.23     l-170.13-109.05L971.64,906.07L754.6,1018.31z"/>
		</g>
		<g>
			<polygon class="st4" points="737.75,1003.24 821.99,1262.46 971.04,1145.96 846.13,944.26    "/>
			<path class="st1" d="M821.98,1280.83c-1.8,0-3.61-0.26-5.38-0.8c-5.74-1.76-10.25-6.2-12.11-11.9l-84.24-259.21     c-2.74-8.42,0.92-17.59,8.7-21.83l108.38-58.98c8.57-4.68,19.28-1.82,24.41,6.47l124.91,201.7c4.94,7.97,3.08,18.38-4.31,24.16     L833.3,1276.94C830.03,1279.5,826.03,1280.83,821.98,1280.83z M759.95,1012.09l71.41,219.71l115.38-90.17L839.65,968.71     L759.95,1012.09z"/>
		</g>
		<g>
			<polygon class="st4" points="1186.94,1003.24 1102.7,1262.46 953.65,1145.96 1095.99,947.17    "/>
			<path class="st1" d="M1102.69,1280.83c-4.05,0-8.04-1.34-11.32-3.9l-149.04-116.49c-7.76-6.07-9.36-17.18-3.63-25.18     l142.34-198.79c5.62-7.84,16.35-10.03,24.59-4.95l90.95,56.07c7.22,4.45,10.46,13.26,7.84,21.33l-84.24,259.21     c-1.86,5.71-6.37,10.14-12.11,11.9C1106.3,1280.57,1104.49,1280.83,1102.69,1280.83z M978.85,1142.34l114.47,89.46l71.67-220.5     l-64.05-39.48L978.85,1142.34z"/>
		</g>
		<g>
			<path class="st4" d="M1107.12,1009.88c0,75.15-60.92,136.07-136.07,136.07c-75.16,0-136.08-60.92-136.08-136.08V873.79h272.16     V1009.88z"/>
			<path class="st1" d="M971.05,1164.33c-85.17,0-154.47-69.29-154.47-154.46V873.79c0-10.15,8.23-18.38,18.38-18.38h272.16     c10.15,0,18.38,8.23,18.38,18.38v136.09C1125.5,1095.05,1056.22,1164.33,971.05,1164.33z M853.34,892.17v117.7     c0,64.9,52.8,117.7,117.71,117.7c64.89,0,117.68-52.79,117.68-117.69V892.17H853.34z"/>
		</g>
		<g>
			<path class="st4" d="M1186.52,860.7c-46.99,94.07-122.95,173.15-208.67,173.15c-142.63,0-258.27-218.94-258.27-361.57     c0-142.63,115.64-258.26,258.27-258.26c142.63,0,258.26,115.63,258.26,258.26C1236.1,729.19,1217.7,798.25,1186.52,860.7"/>
			<path class="st1" d="M977.84,1052.23c-157.86,0-276.65-230.49-276.65-379.95c0-152.54,124.11-276.64,276.65-276.64     s276.64,124.1,276.64,276.64c0,59.38-18.78,131.05-51.53,196.63l0,0C1145.62,983.71,1061.46,1052.23,977.84,1052.23z      M977.84,432.41c-132.28,0-239.89,107.61-239.89,239.88c0,132.39,109.78,343.19,239.89,343.19     c69.39,0,141.25-60.93,192.23-162.98l0,0c30.28-60.65,47.65-126.34,47.65-180.2C1217.72,540.02,1110.11,432.41,977.84,432.41z"/>
		</g>
		<g>
			<path class="st2" d="M977.84,414.02c-142.63,0-258.27,115.63-258.27,258.26c0,142.63,343.11,132.79,393.6-76.7     c0,0,122.93,133.6,122.93,76.7C1236.1,529.65,1120.47,414.02,977.84,414.02z"/>
			<path class="st1" d="M865.06,786.47c-11.5,0-22.9-0.66-34.1-1.99c-80.05-9.51-129.78-52.5-129.78-112.19     c0-152.54,124.11-276.64,276.65-276.64s276.64,124.1,276.64,276.64c0,21.31-12.49,28.48-17.86,30.57     c-21.55,8.4-60.35-15.81-115.45-72.1C1080.11,732.55,968.84,786.47,865.06,786.47z M977.84,432.41     c-132.28,0-239.89,107.61-239.89,239.88c0,59.5,74.52,72.97,97.35,75.68c89.73,10.69,229.68-30.91,259.99-156.68     c1.59-6.6,6.69-11.78,13.26-13.48c6.56-1.71,13.54,0.35,18.14,5.34c33.79,36.71,71.93,70.49,90.9,81.32     C1213.46,535.8,1107.49,432.41,977.84,432.41z"/>
		</g>
		<g>
			<rect x="1096.64" y="1376.19" class="st2" width="139.11" height="70.84"/>
			<path class="st1" d="M1235.74,1464.12h-139.11c-9.44,0-17.1-7.66-17.1-17.1v-70.84c0-9.44,7.66-17.1,17.1-17.1h139.11     c9.44,0,17.1,7.66,17.1,17.1v70.84C1252.84,1456.47,1245.18,1464.12,1235.74,1464.12z M1113.73,1429.93h104.91v-36.65h-104.91     V1429.93z"/>
		</g>
		<g>
			<polygon class="st2" points="890.47,1504.56 961.33,1247.75 1032.2,1504.56    "/>
			<path class="st1" d="M1032.19,1522.94H890.46c-5.74,0-11.15-2.68-14.62-7.24c-3.48-4.57-4.62-10.49-3.1-16.03l70.86-256.81     c2.2-7.97,9.45-13.49,17.72-13.49s15.52,5.52,17.72,13.49l70.87,256.81c1.53,5.54,0.39,11.46-3.1,16.03     C1043.34,1520.26,1037.93,1522.94,1032.19,1522.94z M914.61,1486.18h93.44l-46.72-169.33L914.61,1486.18z"/>
		</g>
		<g>
			<polygon class="st2" points="961.33,1289.26 890.47,1218.39 961.33,1147.52 1032.2,1218.39    "/>
			<path class="st1" d="M961.32,1307.64L961.32,1307.64c-4.87,0-9.55-1.94-13-5.39l-70.86-70.87c-7.18-7.18-7.18-18.81,0-25.99     l70.86-70.87c6.89-6.89,19.1-6.89,25.99,0l70.87,70.87c7.18,7.18,7.18,18.81,0,25.99l-70.87,70.87     C970.87,1305.7,966.2,1307.64,961.32,1307.64z M916.46,1218.39l44.87,44.88l44.88-44.88l-44.88-44.88L916.46,1218.39z"/>
		</g>
		<g>
			<path class="st1" d="M628.31,1520.65c-9.44,0-17.1-7.66-17.1-17.1v-104.69c0-9.44,7.66-17.1,17.1-17.1s17.1,7.66,17.1,17.1     v104.69C645.41,1512.99,637.75,1520.65,628.31,1520.65z"/>
		</g>
		<g>
			<path class="st1" d="M1296.37,1520.65c-9.44,0-17.1-7.66-17.1-17.1v-104.69c0-9.44,7.66-17.1,17.1-17.1s17.1,7.66,17.1,17.1     v104.69C1313.47,1512.99,1305.81,1520.65,1296.37,1520.65z"/>
		</g>
	</g>
</g>
</svg>