<?xml version="1.0" encoding="UTF-8"?>
<svg xmlns="http://www.w3.org/2000/svg" width="512" height="295" viewBox="0 0 512 295" fill="none">
  <path d="M425.215 112.953C426.158 114.596 427.035 116.279 427.845 118.002C427.036 116.279 426.157 114.595 425.215 112.953ZM385.473 81.031C387.367 81.6232 389.237 82.2689 391.058 83.014C389.237 82.2694 387.367 81.6232 385.473 81.031ZM378.78 79.2936C380.693 79.6874 382.577 80.1574 384.43 80.7041C382.577 80.1574 380.693 79.6874 378.78 79.2936ZM140.506 217.054C142.531 217.251 144.587 217.335 146.658 217.356C144.587 217.335 142.531 217.251 140.506 217.054ZM81.476 170.729C82.135 172.606 82.8964 174.434 83.7079 176.233C82.8959 174.434 82.135 172.607 81.476 170.729ZM79.7543 164.951C80.2533 166.899 80.8077 168.826 81.4661 170.705C80.8071 168.826 80.2533 166.899 79.7543 164.951ZM114.53 209.182C112.857 208.288 111.224 207.33 109.636 206.308C111.224 207.33 112.857 208.288 114.53 209.182ZM133.22 215.935C131.309 215.542 129.427 215.072 127.575 214.526C129.426 215.072 131.309 215.542 133.22 215.935ZM511.929 152.125C512.026 148.978 511.99 145.858 511.89 142.753C509.431 65.6295 447.386 2.7135 369.194 0.299561C342.325 -0.529877 316.937 5.92438 294.862 17.8231V13.097C294.862 5.99069 289.101 0.229218 281.995 0.229218H281.9L281.894 0.228607H230.005C222.899 0.228607 217.138 5.99008 217.138 13.0964V17.876V148.241C217.138 175.414 196.279 205.377 170.41 213.696C162.323 216.297 154.347 217.432 146.66 217.356C144.577 217.335 142.509 217.251 140.474 217.052C140.451 217.049 140.426 217.049 140.402 217.046C138.332 216.842 136.298 216.519 134.285 216.137C133.943 216.072 133.598 216.012 133.258 215.942C131.302 215.54 129.375 215.059 127.483 214.497C127.207 214.415 126.935 214.324 126.661 214.239C122.636 212.987 118.764 211.394 115.09 209.47C115 209.422 114.909 209.377 114.819 209.33C93.5707 198.075 78.8498 176.146 77.7405 150.68C77.7068 149.909 77.6568 149.144 77.6236 148.374V146.768V13.0964C77.6236 5.9895 71.8627 0.228607 64.7559 0.228607H14.9589C6.6974 0.228607 0 6.92599 0 15.1875L0.071573 143.103C-0.0255663 146.251 0.0110668 149.371 0.109951 152.476C2.56984 229.599 64.6139 292.515 142.807 294.929C169.676 295.758 195.064 289.305 217.138 277.405V282.131C217.138 289.238 222.899 294.999 230.005 294.999H230.1C230.103 294.999 230.104 295 230.106 295H281.995C289.101 295 294.862 289.239 294.862 282.133V277.353V146.988C294.862 119.815 315.722 89.8509 341.59 81.5324C349.676 78.9324 357.65 77.797 365.336 77.8732C367.425 77.8935 369.5 77.9773 371.541 78.1779C371.558 78.1797 371.576 78.1797 371.594 78.1814C373.666 78.3867 375.701 78.709 377.716 79.0917C378.058 79.1563 378.402 79.2162 378.742 79.2866C380.7 79.6891 382.629 80.1702 384.522 80.7332C384.794 80.8141 385.061 80.9031 385.332 80.9868C389.361 82.2392 393.239 83.8347 396.917 85.7629C397.003 85.8077 397.091 85.8508 397.177 85.8967C418.428 97.1504 433.15 119.082 434.26 144.549C434.293 145.319 434.343 146.085 434.376 146.855V148.46V282.133C434.376 289.239 440.137 295 447.244 295H497.042C505.303 295 512 288.303 512 280.041L511.929 152.125Z" fill="#E94C8E"></path>
</svg>
