<?xml version="1.0" encoding="UTF-8"?>
<svg xmlns="http://www.w3.org/2000/svg" width="512" height="116" viewBox="0 0 512 116" fill="none">
  <path d="M70.7518 43.595C76.69 49.3885 79.6587 57.9838 79.6587 69.3757V111.154C79.6587 112.717 78.3916 113.984 76.8285 113.984H59.8949C58.3318 113.984 57.0647 112.717 57.0647 111.154V72.8515C57.0647 66.6734 55.7112 62.0614 53.0093 59.0192C50.3051 55.9785 46.3948 54.4576 41.2781 54.4576C35.5797 54.4576 31.0422 56.2203 27.6636 59.7441C24.2825 63.2703 22.5944 68.5062 22.5944 75.4586V111.154C22.5944 112.717 21.3269 113.984 19.7642 113.984H2.83019C1.26705 113.984 0 112.717 0 111.154V38.894C0 37.3309 1.26705 36.0638 2.83019 36.0638H18.7505C20.3136 36.0638 21.5807 37.3309 21.5807 38.894V43.781C21.5807 44.291 22.1926 44.5313 22.5545 44.1722C25.3669 41.3791 28.7605 39.1834 32.7327 37.5847C37.1727 35.799 42.0496 34.9054 47.361 34.9054C57.0148 34.9054 64.8131 37.8014 70.7518 43.595Z" fill="#E94C8E"></path>
  <path d="M179.61 38.8942V111.154C179.61 112.717 178.343 113.985 176.78 113.985H161.005C159.442 113.985 158.175 112.717 158.175 111.154V106.157C158.175 105.642 157.553 105.403 157.194 105.773C154.41 108.639 151.163 110.869 147.457 112.464C143.304 114.249 138.815 115.143 133.988 115.143C123.752 115.143 115.641 112.199 109.655 106.308C103.667 100.42 100.676 91.68 100.676 80.0939V38.8942C100.676 37.331 101.943 36.064 103.506 36.064H120.44C122.003 36.064 123.27 37.331 123.27 38.8942V76.7619C123.27 89.3146 128.531 95.5907 139.056 95.5907C144.463 95.5907 148.808 93.83 152.091 90.3043C155.373 86.78 157.016 81.5412 157.016 74.5897V38.8942C157.016 37.331 158.283 36.064 159.846 36.064H176.78C178.343 36.064 179.61 37.331 179.61 38.8942Z" fill="#E94C8E"></path>
  <path d="M271.362 43.595C277.3 49.3885 280.269 57.9838 280.269 69.3757V111.154C280.269 112.717 279.002 113.984 277.439 113.984H260.505C258.942 113.984 257.675 112.717 257.675 111.154V72.8515C257.675 66.6734 256.323 62.0614 253.62 59.0192C250.915 55.9785 247.005 54.4576 241.888 54.4576C236.19 54.4576 231.653 56.2203 228.274 59.7441C224.893 63.2703 223.205 68.5062 223.205 75.4586V111.154C223.205 112.717 221.937 113.984 220.375 113.984H203.441C201.877 113.984 200.61 112.717 200.61 111.154V38.894C200.61 37.3309 201.877 36.0638 203.441 36.0638H219.361C220.924 36.0638 222.191 37.3309 222.191 38.894V43.781C222.191 44.291 222.803 44.5313 223.165 44.1722C225.977 41.3791 229.371 39.1834 233.343 37.5847C237.783 35.799 242.659 34.9054 247.971 34.9054C257.626 34.9054 265.424 37.8014 271.362 43.595Z" fill="#E94C8E"></path>
  <path d="M316.839 110.001C310.224 106.575 305.057 101.818 301.341 95.7356C297.623 89.6517 295.766 82.7498 295.766 75.0235C295.766 67.3005 297.623 60.3952 301.341 54.3128C305.057 48.2299 310.224 43.4751 316.839 40.047C323.451 36.6208 330.91 34.9053 339.216 34.9053C347.421 34.9053 354.591 36.6208 360.724 40.047C366.022 43.0103 370.077 47.0725 372.889 52.2359C373.629 53.5962 373.081 55.3059 371.716 56.0394L358.923 62.912C357.636 63.6032 356.062 63.1822 355.227 61.9834C351.265 56.2908 345.878 53.4443 339.071 53.4443C333.18 53.4443 328.303 55.3765 324.443 59.2368C320.58 63.0999 318.649 68.3614 318.649 75.0235C318.649 81.686 320.58 86.9504 324.443 90.8106C328.303 94.6738 333.18 96.6041 339.071 96.6041C345.947 96.6041 351.331 93.7735 355.224 88.1092C356.061 86.8922 357.651 86.4615 358.947 87.1691C362.281 88.9874 368.35 92.2983 371.714 94.133C373.079 94.8776 373.613 96.5984 372.85 97.9539C370.04 102.947 365.998 106.938 360.724 109.929C354.591 113.405 347.421 115.143 339.216 115.143C330.91 115.143 323.451 113.43 316.839 110.001Z" fill="#E94C8E"></path>
  <path d="M459.388 43.595C465.325 49.3885 468.295 57.9838 468.295 69.3757V111.154C468.295 112.717 467.028 113.984 465.464 113.984H448.531C446.968 113.984 445.701 112.717 445.701 111.154V72.8515C445.701 66.6734 444.348 62.0614 441.645 59.0192C438.94 55.9785 435.03 54.4576 429.914 54.4576C424.216 54.4576 419.678 56.2203 416.299 59.7441C412.918 63.2703 411.23 68.5062 411.23 75.4586V111.154C411.23 112.717 409.963 113.984 408.4 113.984H391.466C389.903 113.984 388.636 112.717 388.636 111.154V9.34769C388.636 7.78455 389.903 6.5175 391.466 6.5175H408.4C409.963 6.5175 411.23 7.78455 411.23 9.34769V42.8269C411.23 43.3349 411.83 43.5863 412.205 43.2441C414.998 40.7028 418.295 38.719 422.093 37.2948C426.341 35.7014 430.975 34.9054 435.996 34.9054C445.651 34.9054 453.449 37.8014 459.388 43.595Z" fill="#E94C8E"></path>
  <path d="M489.484 36.064H506.418C507.981 36.064 509.248 37.3311 509.248 38.8942V111.154C509.248 112.717 507.981 113.985 506.418 113.985H489.484C487.921 113.985 486.654 112.717 486.654 111.154V38.8942C486.654 37.3311 487.921 36.064 489.484 36.064Z" fill="#E94C8E"></path>
  <path d="M487.813 21.5806C485.206 19.1682 483.902 16.1746 483.902 12.6003C483.902 9.02986 485.206 6.03527 487.813 3.62086C490.42 1.20886 493.798 -9.53674e-06 497.952 -9.53674e-06C502.102 -9.53674e-06 505.483 1.15887 508.09 3.4757C510.697 5.79397 512 8.68954 512 12.1662C512 15.9318 510.697 19.0461 508.09 21.5081C505.483 23.9701 502.102 25.201 497.952 25.201C493.798 25.201 490.42 23.9955 487.813 21.5806Z" fill="#E94C8E"></path>
</svg>
