<?xml version="1.0" encoding="UTF-8"?>
<svg xmlns="http://www.w3.org/2000/svg" width="512" height="146" viewBox="0 0 512 146" fill="none">
  <path d="M70.7518 43.7379C76.69 49.5314 79.6587 58.1268 79.6587 69.5187V111.297C79.6587 112.86 78.3916 114.127 76.8285 114.127H59.8949C58.3318 114.127 57.0647 112.86 57.0647 111.297V72.9944C57.0647 66.8164 55.7112 62.2043 53.0093 59.1621C50.3051 56.1214 46.3948 54.6006 41.2781 54.6006C35.5797 54.6006 31.0422 56.3632 27.6636 59.887C24.2825 63.4132 22.5944 68.6492 22.5944 75.6016V111.297C22.5944 112.86 21.3269 114.127 19.7642 114.127H2.83019C1.26705 114.127 0 112.86 0 111.297V39.037C0 37.4738 1.26705 36.2068 2.83019 36.2068H18.7505C20.3136 36.2068 21.5807 37.4738 21.5807 39.037V43.9239C21.5807 44.4339 22.1926 44.6743 22.5545 44.3152C25.3669 41.522 28.7605 39.3263 32.7327 37.7276C37.1727 35.9419 42.0496 35.0483 47.361 35.0483C57.0148 35.0483 64.8131 37.9444 70.7518 43.7379Z" fill="#E94C8E"></path>
  <path d="M179.61 39.0371V111.297C179.61 112.86 178.343 114.127 176.78 114.127H161.005C159.442 114.127 158.175 112.86 158.175 111.297V106.3C158.175 105.785 157.553 105.546 157.194 105.916C154.41 108.782 151.163 111.012 147.457 112.607C143.304 114.392 138.815 115.286 133.988 115.286C123.752 115.286 115.641 112.342 109.655 106.451C103.667 100.563 100.676 91.8229 100.676 80.2368V39.0371C100.676 37.474 101.943 36.2069 103.506 36.2069H120.44C122.003 36.2069 123.27 37.474 123.27 39.0371V76.9048C123.27 89.4575 128.531 95.7336 139.056 95.7336C144.463 95.7336 148.808 93.973 152.091 90.4472C155.373 86.923 157.016 81.6841 157.016 74.7327V39.0371C157.016 37.474 158.283 36.2069 159.846 36.2069H176.78C178.343 36.2069 179.61 37.474 179.61 39.0371Z" fill="#E94C8E"></path>
  <path d="M271.362 43.7379C277.3 49.5314 280.269 58.1268 280.269 69.5187V111.297C280.269 112.86 279.002 114.127 277.439 114.127H260.505C258.942 114.127 257.675 112.86 257.675 111.297V72.9944C257.675 66.8164 256.323 62.2043 253.62 59.1621C250.915 56.1214 247.005 54.6006 241.888 54.6006C236.19 54.6006 231.653 56.3632 228.274 59.887C224.893 63.4132 223.205 68.6492 223.205 75.6016V111.297C223.205 112.86 221.937 114.127 220.375 114.127H203.441C201.877 114.127 200.61 112.86 200.61 111.297V39.037C200.61 37.4738 201.877 36.2068 203.441 36.2068H219.361C220.924 36.2068 222.191 37.4738 222.191 39.037V43.9239C222.191 44.4339 222.803 44.6743 223.165 44.3152C225.977 41.522 229.371 39.3263 233.343 37.7276C237.783 35.9419 242.659 35.0483 247.971 35.0483C257.626 35.0483 265.424 37.9444 271.362 43.7379Z" fill="#E94C8E"></path>
  <path d="M316.839 110.144C310.224 106.718 305.057 101.961 301.341 95.8786C297.623 89.7947 295.766 82.8928 295.766 75.1665C295.766 67.4435 297.623 60.5382 301.341 54.4558C305.057 48.3729 310.224 43.6181 316.839 40.19C323.451 36.7638 330.91 35.0483 339.216 35.0483C347.421 35.0483 354.591 36.7638 360.724 40.19C366.022 43.1533 370.077 47.2155 372.889 52.3789C373.629 53.7392 373.081 55.4489 371.716 56.1824L358.923 63.055C357.636 63.7462 356.062 63.3252 355.227 62.1264C351.265 56.4338 345.878 53.5873 339.071 53.5873C333.18 53.5873 328.303 55.5195 324.443 59.3798C320.58 63.243 318.649 68.5044 318.649 75.1665C318.649 81.829 320.58 87.0934 324.443 90.9536C328.303 94.8168 333.18 96.7471 339.071 96.7471C345.947 96.7471 351.331 93.9165 355.224 88.2523C356.061 87.0352 357.651 86.6045 358.947 87.3121C362.281 89.1304 368.35 92.4413 371.714 94.276C373.079 95.0206 373.613 96.7414 372.85 98.0969C370.04 103.09 365.998 107.081 360.724 110.072C354.591 113.548 347.421 115.286 339.216 115.286C330.91 115.286 323.451 113.573 316.839 110.144Z" fill="#E94C8E"></path>
  <path d="M459.388 43.7379C465.325 49.5314 468.295 58.1268 468.295 69.5187V111.297C468.295 112.86 467.028 114.127 465.464 114.127H448.531C446.968 114.127 445.701 112.86 445.701 111.297V72.9944C445.701 66.8164 444.348 62.2043 441.645 59.1621C438.94 56.1214 435.03 54.6006 429.914 54.6006C424.216 54.6006 419.678 56.3632 416.299 59.887C412.918 63.4132 411.23 68.6492 411.23 75.6016V111.297C411.23 112.86 409.963 114.127 408.4 114.127H391.466C389.903 114.127 388.636 112.86 388.636 111.297V9.49063C388.636 7.92749 389.903 6.66045 391.466 6.66045H408.4C409.963 6.66045 411.23 7.92749 411.23 9.49063V42.9698C411.23 43.4779 411.83 43.7293 412.205 43.387C414.998 40.8457 418.295 38.862 422.093 37.4378C426.341 35.8443 430.975 35.0483 435.996 35.0483C445.651 35.0483 453.449 37.9444 459.388 43.7379Z" fill="#E94C8E"></path>
  <path d="M489.484 36.2069H506.418C507.981 36.2069 509.248 37.474 509.248 39.0371V111.297C509.248 112.86 507.981 114.127 506.418 114.127H489.484C487.921 114.127 486.654 112.86 486.654 111.297V39.0371C486.654 37.474 487.921 36.2069 489.484 36.2069Z" fill="#E94C8E"></path>
  <path d="M3.65642 144.492C2.75276 144.013 2.04713 143.346 1.5405 142.49C1.03387 141.634 0.780564 140.665 0.780564 139.583C0.780564 138.502 1.03387 137.536 1.5405 136.687C2.04713 135.838 2.74891 135.174 3.64584 134.694C4.54277 134.215 5.56612 133.976 6.71685 133.976C7.79836 133.976 8.74672 134.195 9.56194 134.633C10.3762 135.072 10.9891 135.701 11.4 136.523L9.42784 137.673C9.113 137.166 8.71932 136.787 8.2473 136.533C7.7748 136.28 7.2576 136.153 6.69618 136.153C5.73724 136.153 4.94317 136.465 4.3135 137.087C3.68382 137.71 3.3685 138.542 3.3685 139.583C3.3685 140.624 3.67997 141.456 4.30292 142.079C4.92635 142.702 5.72378 143.014 6.69618 143.014C7.2576 143.014 7.7748 142.887 8.2473 142.633C8.71932 142.38 9.113 142 9.42784 141.493L11.4 142.644C10.9756 143.466 10.3555 144.099 9.54127 144.544C8.72654 144.989 7.7849 145.211 6.71685 145.211C5.58006 145.211 4.56008 144.972 3.65642 144.492Z" fill="#E94C8E"></path>
  <path d="M50.3995 142.068C51.0157 141.439 51.3233 140.611 51.3233 139.583C51.3233 138.556 51.0157 137.728 50.3995 137.097C49.7828 136.468 49.0022 136.153 48.0577 136.153C47.1127 136.153 46.3354 136.468 45.7264 137.097C45.1169 137.728 44.8122 138.556 44.8122 139.583C44.8122 140.611 45.1169 141.439 45.7264 142.068C46.3354 142.699 47.1127 143.013 48.0577 143.013C49.0022 143.013 49.7828 142.699 50.3995 142.068ZM45.0587 144.492C44.1685 144.013 43.474 143.346 42.9741 142.489C42.4737 141.634 42.2242 140.665 42.2242 139.583C42.2242 138.502 42.4737 137.537 42.9741 136.687C43.474 135.838 44.1685 135.174 45.0587 134.694C45.949 134.215 46.9483 133.976 48.0577 133.976C49.1805 133.976 50.1866 134.215 51.0768 134.694C51.967 135.174 52.6615 135.838 53.1619 136.687C53.6618 137.537 53.9118 138.502 53.9118 139.583C53.9118 140.665 53.6618 141.634 53.1619 142.489C52.6615 143.346 51.967 144.013 51.0768 144.492C50.1866 144.972 49.1805 145.212 48.0577 145.212C46.9483 145.212 45.949 144.972 45.0587 144.492Z" fill="#E94C8E"></path>
  <path d="M100.798 135.177C101.606 135.978 102.01 137.18 102.01 138.782V145.067H99.4425V139.111C99.4425 138.152 99.23 137.43 98.8061 136.944C98.3811 136.458 97.7717 136.214 96.9781 136.214C96.1153 136.214 95.4236 136.499 94.9035 137.067C94.3825 137.636 94.1229 138.447 94.1229 139.501V145.067H91.5552V139.111C91.5552 138.152 91.3427 137.43 90.9187 136.944C90.4938 136.458 89.8844 136.214 89.0903 136.214C88.214 136.214 87.519 136.495 87.0056 137.057C86.4922 137.618 86.2351 138.433 86.2351 139.501V145.067H83.6678V134.099H86.1116V135.496C86.523 135.003 87.0364 134.626 87.6521 134.366C88.2688 134.106 88.9533 133.976 89.7065 133.976C90.528 133.976 91.2571 134.13 91.894 134.438C92.5309 134.746 93.0342 135.201 93.4038 135.804C93.8557 135.229 94.4377 134.781 95.1496 134.459C95.862 134.137 96.6493 133.976 97.5121 133.976C98.895 133.976 99.99 134.376 100.798 135.177Z" fill="#E94C8E"></path>
  <path d="M142.242 135.177C143.049 135.978 143.454 137.18 143.454 138.782V145.067H140.886V139.111C140.886 138.152 140.674 137.43 140.25 136.944C139.825 136.458 139.215 136.214 138.422 136.214C137.559 136.214 136.867 136.499 136.347 137.067C135.826 137.636 135.566 138.447 135.566 139.501V145.067H132.999V139.111C132.999 138.152 132.786 137.43 132.362 136.944C131.937 136.458 131.328 136.214 130.534 136.214C129.658 136.214 128.962 136.495 128.449 137.057C127.936 137.618 127.679 138.433 127.679 139.501V145.067H125.111V134.099H127.555V135.496C127.967 135.003 128.48 134.626 129.096 134.366C129.712 134.106 130.397 133.976 131.15 133.976C131.971 133.976 132.701 134.13 133.338 134.438C133.974 134.746 134.478 135.201 134.847 135.804C135.299 135.229 135.881 134.781 136.593 134.459C137.305 134.137 138.093 133.976 138.956 133.976C140.338 133.976 141.433 134.376 142.242 135.177Z" fill="#E94C8E"></path>
  <path d="M177.257 134.099V145.067H174.812V143.671C174.401 144.164 173.888 144.544 173.272 144.811C172.656 145.078 171.991 145.211 171.28 145.211C169.814 145.211 168.661 144.804 167.818 143.989C166.976 143.175 166.555 141.966 166.555 140.364V134.099H169.123V140.015C169.123 141.001 169.345 141.737 169.79 142.222C170.235 142.709 170.869 142.952 171.69 142.952C172.608 142.952 173.337 142.668 173.878 142.099C174.419 141.532 174.689 140.713 174.689 139.645V134.099H177.257Z" fill="#E94C8E"></path>
  <path d="M217.55 135.188C218.385 135.996 218.803 137.194 218.803 138.782V145.067H216.235V139.111C216.235 138.152 216.009 137.43 215.557 136.944C215.106 136.458 214.462 136.214 213.627 136.214C212.682 136.214 211.935 136.499 211.388 137.067C210.84 137.636 210.566 138.453 210.566 139.521V145.067H207.998V134.099H210.443V135.516C210.868 135.009 211.401 134.626 212.045 134.366C212.689 134.106 213.414 133.976 214.222 133.976C215.605 133.976 216.714 134.38 217.55 135.188Z" fill="#E94C8E"></path>
  <path d="M249.791 134.099H252.359V145.068H249.791V134.099ZM249.915 131.85C249.599 131.556 249.442 131.189 249.442 130.751C249.442 130.313 249.599 129.947 249.915 129.652C250.229 129.357 250.62 129.21 251.085 129.21C251.551 129.21 251.941 129.351 252.256 129.631C252.571 129.912 252.729 130.265 252.729 130.689C252.729 131.141 252.574 131.521 252.267 131.829C251.958 132.137 251.565 132.291 251.085 132.291C250.62 132.291 250.229 132.144 249.915 131.85Z" fill="#E94C8E"></path>
  <path d="M293.762 144.492C292.858 144.013 292.152 143.346 291.646 142.49C291.139 141.634 290.886 140.665 290.886 139.583C290.886 138.502 291.139 137.536 291.646 136.687C292.152 135.838 292.854 135.174 293.751 134.694C294.648 134.215 295.672 133.976 296.822 133.976C297.904 133.976 298.852 134.195 299.667 134.633C300.481 135.072 301.094 135.701 301.505 136.523L299.533 137.673C299.218 137.166 298.824 136.787 298.352 136.533C297.88 136.28 297.363 136.153 296.801 136.153C295.842 136.153 295.048 136.465 294.419 137.087C293.789 137.71 293.474 138.542 293.474 139.583C293.474 140.624 293.785 141.456 294.408 142.079C295.032 142.702 295.829 143.014 296.801 143.014C297.363 143.014 297.88 142.887 298.352 142.633C298.824 142.38 299.218 142 299.533 141.493L301.505 142.644C301.081 143.466 300.461 144.099 299.646 144.544C298.832 144.989 297.89 145.211 296.822 145.211C295.685 145.211 294.665 144.972 293.762 144.492Z" fill="#E94C8E"></path>
  <path d="M338.666 142.9C339.166 142.606 339.519 142.185 339.724 141.637V140.364H337.074C335.595 140.364 334.856 140.85 334.856 141.822C334.856 142.288 335.041 142.657 335.411 142.931C335.78 143.206 336.294 143.342 336.951 143.342C337.594 143.342 338.166 143.195 338.666 142.9ZM341.008 135.136C341.864 135.91 342.292 137.078 342.292 138.638V145.068H339.868V143.732C339.553 144.212 339.104 144.578 338.523 144.831C337.94 145.085 337.239 145.211 336.417 145.211C335.595 145.211 334.877 145.071 334.26 144.79C333.644 144.51 333.168 144.119 332.833 143.619C332.497 143.12 332.33 142.555 332.33 141.925C332.33 140.939 332.695 140.148 333.428 139.552C334.161 138.956 335.315 138.659 336.889 138.659H339.724V138.495C339.724 137.728 339.495 137.139 339.036 136.728C338.577 136.318 337.896 136.112 336.992 136.112C336.376 136.112 335.77 136.208 335.174 136.399C334.579 136.591 334.076 136.858 333.665 137.2L332.658 135.331C333.233 134.893 333.925 134.558 334.733 134.325C335.541 134.092 336.397 133.976 337.3 133.976C338.916 133.976 340.152 134.363 341.008 135.136Z" fill="#E94C8E"></path>
  <path d="M381.825 144.472C381.523 144.718 381.157 144.903 380.726 145.026C380.294 145.149 379.839 145.211 379.36 145.211C378.155 145.211 377.224 144.896 376.567 144.266C375.909 143.637 375.58 142.719 375.58 141.514V136.235H373.773V134.181H375.58V131.675H378.148V134.181H381.085V136.235H378.148V141.452C378.148 141.986 378.277 142.394 378.539 142.674C378.798 142.955 379.175 143.095 379.668 143.095C380.243 143.095 380.722 142.945 381.106 142.644L381.825 144.472Z" fill="#E94C8E"></path>
  <path d="M415.566 134.099H418.133V145.068H415.566V134.099ZM415.689 131.85C415.374 131.556 415.216 131.189 415.216 130.751C415.216 130.313 415.374 129.947 415.689 129.652C416.004 129.357 416.394 129.21 416.86 129.21C417.325 129.21 417.716 129.351 418.03 129.631C418.345 129.912 418.503 130.265 418.503 130.689C418.503 131.141 418.349 131.521 418.041 131.829C417.732 132.137 417.339 132.291 416.86 132.291C416.394 132.291 416.004 132.144 415.689 131.85Z" fill="#E94C8E"></path>
  <path d="M464.835 142.068C465.451 141.439 465.759 140.611 465.759 139.583C465.759 138.556 465.451 137.728 464.835 137.097C464.218 136.468 463.438 136.153 462.493 136.153C461.548 136.153 460.771 136.468 460.162 137.097C459.553 137.728 459.248 138.556 459.248 139.583C459.248 140.611 459.553 141.439 460.162 142.068C460.771 142.699 461.548 143.013 462.493 143.013C463.438 143.013 464.218 142.699 464.835 142.068ZM459.494 144.492C458.604 144.013 457.91 143.346 457.41 142.489C456.909 141.634 456.66 140.665 456.66 139.583C456.66 138.502 456.909 137.537 457.41 136.687C457.91 135.838 458.604 135.174 459.494 134.694C460.385 134.215 461.384 133.976 462.493 133.976C463.616 133.976 464.622 134.215 465.512 134.694C466.403 135.174 467.097 135.838 467.598 136.687C468.097 137.537 468.347 138.502 468.347 139.583C468.347 140.665 468.097 141.634 467.598 142.489C467.097 143.346 466.403 144.013 465.512 144.492C464.622 144.972 463.616 145.212 462.493 145.212C461.384 145.212 460.385 144.972 459.494 144.492Z" fill="#E94C8E"></path>
  <path d="M507.655 135.188C508.49 135.996 508.908 137.194 508.908 138.782V145.067H506.34V139.111C506.34 138.152 506.114 137.43 505.662 136.944C505.211 136.458 504.566 136.214 503.732 136.214C502.787 136.214 502.04 136.499 501.493 137.067C500.945 137.636 500.671 138.453 500.671 139.521V145.067H498.104V134.099H500.548V135.516C500.972 135.009 501.506 134.626 502.15 134.366C502.794 134.106 503.519 133.976 504.327 133.976C505.71 133.976 506.819 134.38 507.655 135.188Z" fill="#E94C8E"></path>
  <path d="M487.813 21.7236C485.206 19.3111 483.902 16.3175 483.902 12.7432C483.902 9.17281 485.206 6.17822 487.813 3.76381C490.42 1.3518 493.798 0.142935 497.952 0.142935C502.102 0.142935 505.483 1.30181 508.09 3.61864C510.697 5.93692 512 8.83249 512 12.3092C512 16.0748 510.697 19.189 508.09 21.651C505.483 24.113 502.102 25.344 497.952 25.344C493.798 25.344 490.42 24.1385 487.813 21.7236Z" fill="#E94C8E"></path>
</svg>
